<?xml version="1.0" standalone="no"?>
<!DOCTYPE svg PUBLIC "-//W3C//DTD SVG 20010904//EN"
 "http://www.w3.org/TR/2001/REC-SVG-20010904/DTD/svg10.dtd">
<svg version="1.0" xmlns="http://www.w3.org/2000/svg"
 width="852.000000pt" height="852.000000pt" viewBox="0 0 852.000000 852.000000"
 preserveAspectRatio="xMidYMid meet">
<metadata>
Created by potrace 1.11, written by Peter Selinger 2001-2013
</metadata>
<g transform="translate(0.000000,852.000000) scale(0.100000,-0.100000)"
fill="#000000" stroke="none">
<path d="M4058 8307 c-108 -111 -216 -224 -239 -252 -23 -27 -45 -52 -48 -55
-10 -8 -95 -123 -104 -140 -4 -8 -25 -42 -47 -75 -50 -78 -128 -234 -178 -360
-23 -55 -46 -113 -53 -130 -7 -16 -13 -34 -15 -40 -1 -5 -26 -75 -54 -155 -29
-80 -93 -268 -144 -418 -50 -149 -95 -270 -101 -268 -5 3 -36 16 -67 29 -31
13 -63 28 -70 33 -7 6 -51 25 -98 43 -47 18 -94 37 -105 42 -31 13 -171 58
-197 63 -13 2 -35 9 -49 14 -27 11 -189 47 -255 58 -209 32 -277 38 -474 38
-168 0 -304 -6 -370 -18 -14 -2 -47 -7 -73 -11 -27 -4 -57 -8 -67 -10 -9 -2
-33 -6 -51 -9 -65 -11 -94 -17 -146 -30 -28 -8 -55 -11 -58 -7 -7 6 0 -239 9
-299 3 -19 8 -62 10 -95 3 -33 7 -69 10 -80 2 -11 7 -42 10 -70 4 -27 11 -77
17 -110 6 -33 13 -71 15 -85 2 -14 7 -36 10 -50 3 -14 8 -34 10 -45 2 -11 8
-41 14 -66 6 -26 13 -55 15 -65 2 -11 4 -19 5 -19 1 0 3 -9 5 -20 11 -57 79
-313 92 -345 3 -8 7 -22 9 -30 10 -49 168 -508 195 -570 13 -28 19 -44 44
-110 9 -25 24 -61 32 -80 8 -19 22 -51 30 -70 18 -43 18 -45 89 -205 31 -71
61 -136 67 -142 10 -14 4 -24 -48 -79 -73 -77 -96 -104 -161 -179 -38 -45 -82
-98 -99 -119 -16 -21 -35 -44 -40 -50 -80 -86 -361 -523 -340 -527 11 -3 20
-6 35 -12 43 -16 237 -69 303 -83 10 -2 26 -5 35 -8 9 -3 28 -7 42 -10 14 -2
48 -10 75 -16 28 -6 61 -14 75 -16 22 -4 59 -11 145 -28 11 -2 64 -14 118 -25
53 -12 140 -30 193 -41 85 -18 135 -30 309 -74 266 -68 572 -216 712 -346 l44
-41 37 31 c20 17 43 35 50 41 50 41 199 108 273 123 13 3 35 8 49 11 57 13
172 26 178 20 4 -3 7 -131 8 -283 3 -383 16 -545 60 -717 9 -33 17 -67 19 -75
12 -63 91 -224 207 -425 9 -16 30 -55 45 -85 15 -30 30 -57 33 -60 3 -3 12
-18 21 -35 9 -16 34 -64 57 -105 69 -129 122 -233 122 -241 0 -5 -13 -31 -30
-58 -80 -137 -71 -300 25 -426 45 -59 73 -82 145 -117 197 -95 443 4 520 210
80 212 -36 443 -255 509 -16 6 -57 11 -90 12 -43 2 -63 7 -70 19 -5 9 -33 59
-61 112 -28 52 -55 104 -62 115 -6 11 -47 85 -90 165 -44 80 -90 163 -102 185
-80 138 -105 190 -132 270 -17 49 -31 99 -33 111 -1 11 -4 25 -7 30 -3 5 -9
36 -13 69 -3 32 -9 63 -11 67 -9 13 -16 223 -18 485 -1 144 -5 265 -10 270 -4
4 -60 9 -124 9 -65 1 -124 2 -132 3 -13 1 -15 27 -15 171 l0 170 -30 38 c-67
84 -117 132 -230 220 -27 21 -146 73 -200 87 -83 22 -128 26 -293 29 -149 2
-153 1 -167 -44 -10 -31 -62 -109 -89 -133 -62 -54 -73 -61 -150 -92 -40 -16
-148 -22 -202 -11 -90 17 -187 87 -244 176 -75 116 -77 273 -6 395 140 239
478 255 645 30 l30 -40 153 -1 c267 -2 403 -25 546 -91 52 -24 160 -89 172
-103 3 -3 19 -15 35 -27 l30 -21 0 436 c0 241 -2 439 -5 442 -3 3 -14 23 -25
45 -11 22 -28 47 -37 56 -10 9 -18 19 -18 23 0 3 -8 14 -17 24 -10 10 -36 38
-59 63 -66 71 -210 204 -319 294 -33 28 -62 52 -65 55 -3 3 -27 23 -55 45 -27
22 -56 45 -63 52 -7 7 -17 13 -20 13 -4 0 -18 10 -32 23 -31 27 -101 80 -245
182 -106 75 -110 77 -140 65 -106 -44 -208 -51 -298 -21 -274 90 -354 435
-149 638 80 79 166 112 280 110 235 -7 414 -229 366 -458 -4 -21 1 -31 23 -48
15 -11 33 -25 40 -31 7 -5 16 -10 22 -10 5 0 11 -3 13 -8 2 -4 48 -40 104 -79
82 -59 234 -176 339 -260 21 -17 121 -102 169 -143 60 -53 206 -197 251 -250
94 -109 92 -107 150 -205 73 -127 68 -60 69 -972 1 -452 5 -825 9 -829 14 -14
147 -15 148 -1 4 40 8 391 8 687 0 190 0 350 0 355 1 34 2 609 2 925 -1 206
-1 492 0 635 0 143 0 427 -1 630 l0 370 -47 25 c-85 45 -159 141 -185 239 -11
40 -17 151 -9 166 3 6 7 19 8 30 7 42 55 125 101 170 45 45 121 92 159 98 10
1 23 6 28 9 12 8 158 3 193 -5 43 -11 123 -61 166 -103 41 -42 92 -130 100
-176 3 -13 5 -23 6 -23 8 0 3 -112 -7 -158 -24 -103 -97 -200 -187 -248 -49
-26 -50 -27 -47 -199 0 -36 0 -72 0 -80 -1 -8 -1 -37 0 -65 0 -27 0 -63 0 -80
-1 -16 -1 -61 0 -100 2 -38 2 -74 1 -80 -1 -5 -1 -62 0 -125 1 -63 1 -124 0
-135 -2 -33 -3 -66 -1 -140 2 -38 2 -74 1 -80 -1 -5 -1 -62 0 -125 1 -63 1
-126 0 -140 -1 -14 -2 -32 -2 -40 0 -33 2 -178 3 -220 1 -25 1 -52 0 -60 -3
-42 1 -205 5 -212 3 -4 2 -8 -3 -8 -4 0 -7 -33 -5 -72 1 -40 2 -104 1 -143 -1
-38 -1 -88 0 -110 5 -103 6 -155 1 -155 -3 0 -4 -33 -2 -72 1 -40 2 -104 1
-143 -1 -38 -1 -78 -1 -87 1 -22 1 -165 1 -218 0 -22 0 -77 0 -122 1 -46 0
-207 -2 -358 l-2 -275 56 -3 56 -3 3 63 c1 35 5 90 7 123 3 33 6 380 7 770 l2
710 23 60 c13 33 25 68 28 78 3 9 10 17 15 17 5 0 7 4 4 9 -3 5 1 14 9 21 8 7
15 17 15 22 0 16 86 135 154 213 77 89 181 192 276 275 41 36 77 68 80 71 3 3
61 49 130 102 69 53 132 102 140 109 9 7 36 26 60 43 25 16 49 36 53 42 4 7
12 13 18 13 9 0 67 38 79 51 3 3 20 14 37 24 28 17 32 23 27 50 -13 68 -4 154
23 214 9 20 17 40 17 44 1 4 7 11 14 16 8 5 12 10 11 12 -2 2 6 15 16 28 110
133 297 176 455 104 135 -61 221 -189 225 -333 5 -164 -75 -294 -225 -368 -49
-24 -66 -27 -155 -27 -87 0 -107 4 -158 27 l-58 27 -77 -53 c-146 -99 -300
-212 -342 -249 -8 -7 -51 -42 -95 -78 -179 -144 -409 -394 -477 -519 -30 -54
-58 -136 -51 -144 3 -3 7 -176 9 -383 1 -208 3 -381 3 -384 1 -4 38 8 84 26
73 29 205 69 262 79 11 2 40 7 65 11 25 4 54 9 65 11 11 2 40 7 65 10 25 3 55
7 66 9 36 6 227 21 306 24 19 1 29 8 36 30 18 51 87 126 153 164 110 64 262
68 371 9 190 -103 260 -339 157 -532 -64 -118 -221 -203 -359 -193 -134 9
-272 101 -322 214 l-13 29 -85 -5 c-98 -5 -204 -15 -240 -21 -14 -2 -45 -7
-70 -10 -50 -7 -56 -8 -120 -23 -25 -5 -56 -12 -70 -14 -14 -3 -45 -11 -70
-18 -25 -7 -47 -13 -50 -14 -3 0 -27 -9 -55 -20 -90 -34 -173 -98 -176 -135
-1 -8 -3 -53 -5 -100 -11 -243 -16 -325 -18 -327 -1 -1 -42 -2 -91 -2 -118 -1
-125 -1 -157 -2 -15 0 -30 -5 -34 -10 -3 -5 -6 -85 -6 -177 -1 -180 7 -315 26
-467 4 -27 8 -63 10 -80 9 -69 47 -208 74 -267 37 -82 105 -142 231 -204 95
-46 107 -52 166 -73 67 -23 288 -82 361 -96 11 -2 19 -4 19 -5 0 -1 9 -3 20
-4 19 -3 102 -18 118 -22 4 -1 13 -2 20 -3 6 0 20 -21 30 -46 34 -83 131 -163
233 -194 256 -77 510 127 491 393 -2 39 -10 85 -17 101 -7 17 -14 36 -16 43
-2 11 -59 86 -89 118 -6 6 -30 23 -54 39 -184 115 -426 56 -537 -132 -14 -23
-31 -40 -37 -38 -7 2 -29 7 -51 10 -21 3 -41 7 -45 9 -3 2 -24 7 -46 11 -46 8
-70 13 -70 15 0 1 -11 3 -24 6 -35 6 -232 63 -258 74 -13 6 -35 15 -50 21 -47
20 -107 51 -124 66 -9 7 -26 46 -38 86 -21 72 -25 90 -37 192 -3 28 -8 64 -10
80 -6 42 -12 527 -7 542 5 12 16 12 128 -2 58 -6 206 -40 250 -56 70 -26 177
-84 214 -115 l39 -34 44 37 c135 117 279 198 490 274 149 54 425 129 563 153
17 3 41 8 55 11 31 7 58 13 90 19 14 2 36 7 50 10 14 3 36 8 50 10 22 4 97 20
270 55 25 6 86 19 135 31 50 12 97 23 105 25 70 15 247 69 250 75 3 5 -33 83
-53 115 -6 10 -30 49 -52 85 -32 53 -148 222 -182 265 -61 78 -175 218 -199
245 -99 112 -142 159 -172 188 -18 19 -32 37 -30 40 88 187 168 371 168 389 0
7 4 13 8 13 5 0 9 6 9 13 1 6 21 62 46 122 78 190 230 623 240 685 1 8 6 21
10 28 5 6 6 12 3 12 -3 0 -1 12 5 28 6 15 13 36 15 47 6 26 10 36 17 55 3 8
19 76 37 150 17 74 34 146 37 160 3 14 7 32 9 40 2 8 6 31 10 50 4 19 8 44 10
55 1 11 7 43 12 70 6 28 13 75 17 105 3 30 8 63 11 72 3 10 7 41 9 70 2 29 7
76 10 103 4 28 8 106 8 174 2 103 -1 124 -13 127 -8 1 -46 10 -85 19 -38 9
-83 19 -100 21 -16 2 -58 9 -92 15 -64 11 -79 13 -218 26 -123 11 -590 5 -590
-7 0 -1 -16 -4 -35 -6 -72 -9 -95 -12 -95 -14 0 -1 -11 -4 -25 -6 -47 -9 -65
-13 -70 -14 -3 -2 -8 -2 -12 -1 -33 4 -396 -106 -523 -160 -16 -7 -32 -13 -35
-14 -13 -4 -62 -26 -130 -58 -41 -19 -78 -32 -81 -29 -3 4 -53 147 -109 317
-57 171 -107 315 -111 321 -5 6 -10 19 -12 30 -2 10 -7 27 -11 36 -4 9 -9 22
-10 30 -2 7 -8 27 -15 43 -6 17 -19 50 -27 75 -9 25 -22 57 -30 72 -8 15 -15
31 -16 35 0 5 -4 17 -8 28 -29 74 -50 124 -64 150 -9 17 -16 33 -16 37 0 4
-13 30 -30 58 -16 27 -28 50 -25 50 14 0 -167 270 -220 327 -11 12 -40 45 -65
75 -53 62 -387 409 -393 408 -1 -1 -91 -92 -199 -203z m1941 -6775 c69 -44 95
-94 89 -168 -10 -115 -121 -187 -232 -149 -49 17 -75 41 -97 90 -33 72 -20
143 39 201 52 52 142 64 201 26z m-1351 -1009 c93 -70 89 -215 -9 -280 -165
-109 -352 88 -237 250 19 26 98 75 98 60 0 -4 5 -2 11 4 16 16 98 -4 137 -34z"/>
<path d="M4178 6800 c-74 -39 -108 -123 -84 -203 16 -53 40 -83 86 -106 169
-85 337 126 212 267 -55 61 -144 79 -214 42z"/>
<path d="M2325 5754 c-98 -54 -129 -150 -77 -246 64 -121 243 -116 303 9 39
82 17 172 -56 221 -44 31 -129 39 -170 16z"/>
<path d="M5981 5754 c-60 -27 -103 -93 -103 -159 0 -96 79 -176 174 -175 168
2 238 213 105 315 -45 33 -125 42 -176 19z"/>
<path d="M2330 3653 c-70 -29 -114 -104 -105 -180 8 -65 37 -107 95 -136 56
-28 99 -28 155 -1 125 59 126 246 1 311 -38 20 -107 23 -146 6z"/>
<path d="M6030 3649 c-108 -53 -135 -187 -55 -278 57 -63 171 -73 235 -19 58
48 84 146 55 202 -8 14 -12 26 -9 26 8 0 -41 46 -69 64 -36 24 -113 26 -157 5z"/>
<path d="M4117 2663 c-6 -10 -2 -404 7 -553 6 -111 11 -176 23 -275 4 -33 7
-72 7 -87 1 -16 3 -28 6 -28 3 0 7 -12 8 -27 2 -33 7 -56 21 -101 5 -18 11
-36 12 -40 1 -4 5 -17 10 -30 5 -13 9 -28 9 -33 0 -37 120 -175 264 -303 38
-33 81 -72 96 -86 49 -44 79 -69 269 -221 102 -83 197 -159 211 -170 14 -11
50 -39 81 -62 l56 -41 0 -61 c0 -77 8 -116 39 -181 41 -88 143 -174 238 -202
12 -3 58 -7 103 -8 116 -3 200 30 279 112 88 90 128 235 100 364 -12 51 -59
132 -104 176 -105 102 -262 138 -395 91 -34 -12 -64 -25 -67 -28 -22 -26 -45
-26 -79 -1 -20 15 -41 32 -47 37 -6 6 -25 21 -43 35 -197 152 -534 435 -644
539 -32 31 -71 75 -87 99 -27 41 -55 134 -65 219 -22 186 -26 263 -30 578 l-4
289 -134 4 c-74 2 -137 0 -140 -5z m1541 -1974 c139 -68 124 -274 -24 -321
-96 -30 -194 23 -220 121 -22 86 10 156 89 198 53 28 99 29 155 2z"/>
</g>
</svg>
