<?xml version="1.0" encoding="utf-8"?>
<!-- Generator: Adobe Illustrator 16.0.0, SVG Export Plug-In . SVG Version: 6.00 Build 0)  -->
<!DOCTYPE svg PUBLIC "-//W3C//DTD SVG 1.1//EN" "http://www.w3.org/Graphics/SVG/1.1/DTD/svg11.dtd">
<svg version="1.1" id="Layer_1" xmlns="http://www.w3.org/2000/svg" xmlns:xlink="http://www.w3.org/1999/xlink" x="0px" y="0px"
	 width="163.667px" height="213.02px" viewBox="0 0 163.667 213.02" enable-background="new 0 0 163.667 213.02"
	 xml:space="preserve">
<g>
	<linearGradient id="SVGID_1_" gradientUnits="userSpaceOnUse" x1="81.8335" y1="151.9736" x2="81.8335" y2="4.882812e-04">
		<stop  offset="0" style="stop-color:#8DC63F"/>
		<stop  offset="1" style="stop-color:#D7DF23"/>
	</linearGradient>
	<path fill="url(#SVGID_1_)" d="M163.667,46.762c-23.381-5.846-41.133-0.003-52.824,5.842C99.153,17.533,99.153,17.533,81.833,0
		C64.082,17.533,64.082,17.533,52.391,52.604C40.701,46.759,23.381,40.917,0,46.762c0,29.226,17.536,64.297,17.536,64.297
		S5.845,122.75,0,134.44c17.536,5.845,40.701,5.843,52.391,17.533c4.047-4.048,9.203-5.384,14.812-5.798c0-0.053,0-0.103,0-0.154
		v-8.608c-7.38-9.657-13.225-9.568-22.662-9.329c-1.086,4.146-4.855,7.22-9.339,7.22c-5.328,0-9.662-4.335-9.662-9.662
		c0-5.328,4.334-9.663,9.662-9.663c3.688,0,6.897,2.078,8.526,5.123c0.154-0.004,0.314-0.008,0.466-0.012
		c8.167-0.209,15.463-0.392,23.009,6.08v-21.228c0-3.555-12.011-14.515-26.909-24.745c-1.48,0.923-3.222,1.465-5.092,1.465
		c-5.328,0-9.662-4.334-9.662-9.662c0-5.329,4.334-9.664,9.662-9.664c5.329,0,9.664,4.335,9.664,9.664
		c0,0.898-0.133,1.764-0.363,2.589c11.167,7.651,29.7,21.659,29.7,30.352v40.079c0,0.002,0,0.005,0,0.008l3.958,0.115
		c0.091-3.828,0.173-8.053,0.173-12.764l-0.002-77.692c-3.601-1.406-6.162-4.904-6.162-8.996c0-5.328,4.334-9.663,9.662-9.663
		s9.663,4.335,9.663,9.663c0,4.092-2.562,7.59-6.163,8.996l0.002,77.692c0,4.803-0.083,9.089-0.176,12.968l2.856,0.083
		c0.081-1.971,0.183-3.852,0.276-5.568c0.102-1.863,0.191-3.518,0.229-4.858c0-13.091,0-22.554-0.151-28.763
		c-0.271-11.142,19.457-25.525,28.992-31.816c-0.202-0.776-0.32-1.586-0.32-2.425c0-5.329,4.334-9.664,9.662-9.664
		s9.663,4.335,9.663,9.664c0,5.328-4.335,9.662-9.663,9.662c-1.938,0-3.739-0.579-5.254-1.564
		c-18.104,11.779-26.176,22.135-26.082,25.974c0.114,4.686,0.144,11.148,0.15,19.564c2.682-1.326,6.12-2.377,10.327-3.136
		c5.226-0.943,10.377-1.231,13.098-1.319c1.396-3.622,4.903-6.203,9.011-6.203c5.328,0,9.663,4.335,9.663,9.663
		c0,5.327-4.335,9.662-9.663,9.662c-4.082,0-7.572-2.548-8.985-6.134c-11.447,0.304-23.449,3.158-23.447,6.902l0,0
		c0,0.001,0,0.002,0,0.002l0,0c-0.041,1.516-0.133,3.209-0.239,5.17c-0.085,1.567-0.181,3.344-0.26,5.229
		c5.075,0.289,11.901,1.579,15.821,5.5c11.691-11.69,35.289-11.688,52.824-17.533c-5.846-11.69-17.535-23.381-17.535-23.381
		S163.667,75.988,163.667,46.762z"/>
	<path fill="#86C441" d="M86.245,46.692c0-2.434-1.979-4.413-4.413-4.413c-2.433,0-4.412,1.979-4.412,4.413
		c0,2.433,1.979,4.412,4.412,4.412C84.266,51.104,86.245,49.125,86.245,46.692z"/>
	<path fill="#86C441" d="M132.366,125.642c0-2.434-1.979-4.413-4.413-4.413c-2.433,0-4.412,1.979-4.412,4.413
		c0,2.433,1.979,4.412,4.412,4.412C130.387,130.054,132.366,128.074,132.366,125.642z"/>
	<path fill="#86C441" d="M35.202,121.229c-2.433,0-4.412,1.979-4.412,4.413c0,2.433,1.979,4.412,4.412,4.412
		c2.431,0,4.408-1.975,4.413-4.402v-0.02C39.61,123.203,37.633,121.229,35.202,121.229z"/>
	<path fill="#86C441" d="M35.202,68.587c-2.433,0-4.412,1.98-4.412,4.414c0,2.433,1.979,4.412,4.412,4.412
		c2.434,0,4.414-1.979,4.414-4.412C39.616,70.567,37.636,68.587,35.202,68.587z"/>
	<path fill="#86C441" d="M126.703,77.413c2.434,0,4.413-1.979,4.413-4.412c0-2.434-1.979-4.414-4.413-4.414
		c-2.433,0-4.412,1.98-4.412,4.414c0,0.89,0.27,1.715,0.725,2.409l0.046,0.075C123.856,76.647,125.191,77.413,126.703,77.413z"/>
</g>
<path fill="#87C540" d="M123.262,188.162c-5.328,0-9.662-4.334-9.662-9.662s4.334-9.663,9.662-9.663s9.663,4.335,9.663,9.663
	S128.59,188.162,123.262,188.162z M123.262,174.087c-2.433,0-4.412,1.979-4.412,4.413c0,2.433,1.979,4.412,4.412,4.412
	c2.434,0,4.413-1.979,4.413-4.412C127.675,176.066,125.695,174.087,123.262,174.087z"/>
<path fill="#87C540" d="M115.707,181.962c-6.567-0.982-22.149-3.918-25.005-9.968c-3.68-7.797-3.003-25.562-2.688-25.562
	l7.007,0.042c0,0-0.913,16.337,2.011,22.533c1.195,1.77,10.604,4.671,19.71,6.031L115.707,181.962z"/>
<path fill="#87C540" d="M114.889,209.328c-5.328,0-9.662-4.334-9.662-9.662s4.334-9.663,9.662-9.663s9.663,4.335,9.663,9.663
	S120.217,209.328,114.889,209.328z M114.889,195.253c-2.433,0-4.412,1.979-4.412,4.413c0,2.433,1.979,4.412,4.412,4.412
	c2.434,0,4.413-1.979,4.413-4.412C119.302,197.232,117.322,195.253,114.889,195.253z"/>
<path fill="#87C540" d="M88.87,213.02c-5.328,0-9.662-4.334-9.662-9.662s4.334-9.662,9.662-9.662s9.663,4.334,9.663,9.662
	S94.198,213.02,88.87,213.02z M88.87,198.945c-2.433,0-4.412,1.979-4.412,4.412s1.979,4.412,4.412,4.412
	c2.434,0,4.413-1.979,4.413-4.412S91.304,198.945,88.87,198.945z"/>
<path fill="#87C540" d="M107.991,199.984c-3.782-2.857-22.829-17.381-26.355-22.645c-4.103-6.121-3.475-31.195-3.475-31.195
	l6.997,0.204c0,0-0.571,22.821,2.292,27.095c2.222,3.314,16.367,14.613,24.762,20.957L107.991,199.984z"/>
<path fill="#87C540" d="M82.364,198.791c-0.06-0.115-5.985-11.645-10.046-18.509c-5.256-8.884-5.198-18.769-5.131-30.214
	c0.008-1.32,0.016-2.67,0.016-4.047h7c0,1.391-0.008,2.754-0.016,4.088c-0.063,10.834-0.114,19.393,4.155,26.608
	c4.168,7.047,10.002,18.396,10.248,18.876L82.364,198.791z"/>
</svg>
