<?xml version="1.0" encoding="utf-8"?>
<!-- Generator: Adobe Illustrator 16.0.0, SVG Export Plug-In . SVG Version: 6.00 Build 0)  -->
<!DOCTYPE svg PUBLIC "-//W3C//DTD SVG 1.1//EN" "http://www.w3.org/Graphics/SVG/1.1/DTD/svg11.dtd">
<svg version="1.1" id="Layer_1" xmlns="http://www.w3.org/2000/svg" xmlns:xlink="http://www.w3.org/1999/xlink" x="0px" y="0px"
	 width="163.667px" height="208.863px" viewBox="0 0 163.667 208.863" enable-background="new 0 0 163.667 208.863"
	 xml:space="preserve">
<g>
	<path fill="#86C440" d="M130.895,125.642c0-1.622-1.32-2.942-2.941-2.942c-1.623,0-2.941,1.32-2.941,2.942s1.318,2.941,2.941,2.941
		C129.575,128.583,130.895,127.264,130.895,125.642z"/>
	<path fill="#86C440" d="M126.704,75.942c1.621,0,2.941-1.319,2.941-2.941c0-1.623-1.32-2.942-2.941-2.942
		c-1.623,0-2.941,1.32-2.941,2.942C123.762,74.623,125.081,75.942,126.704,75.942z"/>
	<path fill="#86C440" d="M163.667,46.762c-23.381-5.846-41.133-0.003-52.824,5.842C99.153,17.533,99.153,17.533,81.833,0
		C64.082,17.533,64.082,17.533,52.391,52.604C40.701,46.759,23.381,40.917,0,46.762c0,29.226,17.536,64.297,17.536,64.297
		S5.845,122.75,0,134.44c17.536,5.845,40.701,5.843,52.391,17.533c5.458-5.458,12.927-5.989,20.812-5.974l2.438,0.071v-9.274
		c-9.277-11.163-19.212-10.955-30.697-10.705c-1.098,0.023-2.208,0.043-3.325,0.058c-0.26,3.314-3.036,5.934-6.417,5.934
		c-3.552,0-6.441-2.89-6.441-6.441s2.89-6.442,6.441-6.442c2.667,0,4.961,1.631,5.939,3.946c1.253-0.013,2.508-0.026,3.737-0.054
		c10.879-0.235,21.2-0.455,30.763,9.232V106c0-3.064-9.903-13.346-36.342-28.031c-1.114,0.92-2.542,1.473-4.097,1.473
		c-3.552,0-6.441-2.889-6.441-6.441c0-3.552,2.89-6.442,6.441-6.442c3.552,0,6.442,2.89,6.442,6.442
		c0,0.904-0.189,1.764-0.527,2.546c9.019,5.05,37.523,21.708,37.523,30.454v40.126c0,0.011,0,0.022,0,0.032l1.728,0.051
		c-0.034-3.979-0.035-8.253-0.035-12.828L80.332,52.95c-2.829-0.679-4.941-3.223-4.941-6.258c0-3.552,2.89-6.442,6.441-6.442
		c3.553,0,6.442,2.89,6.442,6.442c0,3.035-2.111,5.58-4.941,6.258l0.002,80.431c0,4.578,0.002,8.883,0.039,12.916l1.322,0.039
		c0.061-2.576,0.148-4.961,0.223-6.98c0.043-1.191,0.082-2.242,0.107-3.115c0-13.136,0-22.627-0.152-28.87
		c-0.133-5.461,6.225-12.659,18.896-21.396c6.928-4.777,13.943-8.757,17.01-10.445c-0.332-0.777-0.518-1.632-0.518-2.529
		c0-3.552,2.889-6.442,6.441-6.442s6.441,2.89,6.441,6.442c0,3.552-2.889,6.441-6.441,6.441c-1.562,0-2.998-0.561-4.113-1.489
		c-10.779,5.825-34.928,20.708-34.717,29.345c0.139,5.725,0.15,14.142,0.152,25.551c5.193-4.656,9.844-7.931,19.305-8.701
		c8.963-0.73,12.775-0.465,14.398-0.135c0.725-2.765,3.236-4.812,6.225-4.812c3.553,0,6.441,2.891,6.441,6.442
		s-2.889,6.441-6.441,6.441c-3.221,0-5.887-2.376-6.359-5.466l-0.172,0.401c-0.094-0.034-2.439-0.812-13.848,0.118
		c-9.664,0.787-13.678,4.365-19.568,9.789c-0.023,0.748-0.057,1.601-0.09,2.54c-0.072,1.934-0.16,4.325-0.219,6.957l2.438,0.071
		c4.143-0.35,15.25,0.021,20.707,5.479c11.691-11.69,35.289-11.688,52.824-17.533c-5.846-11.69-17.535-23.381-17.535-23.381
		S163.667,75.988,163.667,46.762z"/>
	<circle fill="#86C440" cx="35.203" cy="73" r="2.942"/>
	<circle fill="#86C440" cx="35.203" cy="125.642" r="2.942"/>
	<path fill="#86C440" d="M84.774,46.692c0-1.623-1.32-2.942-2.942-2.942c-1.622,0-2.941,1.32-2.941,2.942
		c0,1.622,1.319,2.941,2.941,2.941C83.454,49.634,84.774,48.314,84.774,46.692z"/>
</g>
<path fill="#86C440" d="M110.508,192.789c-3.553,0-6.441-2.89-6.441-6.441c0-3.553,2.889-6.442,6.441-6.442
	c3.551,0,6.441,2.89,6.441,6.442C116.95,189.899,114.059,192.789,110.508,192.789z M110.508,183.405
	c-1.623,0-2.941,1.32-2.941,2.942s1.318,2.941,2.941,2.941c1.621,0,2.941-1.319,2.941-2.941S112.129,183.405,110.508,183.405z"/>
<path fill="#86C440" d="M104.247,186.62c-1.457-0.599-14.305-6-16.846-11.382c-3.352-7.103-3.074-15.811-2.832-23.492
	c0.062-1.941,0.121-3.775,0.121-5.523h3c0,1.796-0.059,3.652-0.121,5.618c-0.234,7.344-0.498,15.668,2.545,22.116
	c1.734,3.676,11.613,8.384,15.273,9.888L104.247,186.62z"/>
<path fill="#86C440" d="M114.694,206.205c-3.553,0-6.441-2.89-6.441-6.441c0-3.553,2.889-6.442,6.441-6.442
	c3.551,0,6.441,2.89,6.441,6.442C121.135,203.315,118.245,206.205,114.694,206.205z M114.694,196.821
	c-1.623,0-2.941,1.32-2.941,2.942s1.318,2.941,2.941,2.941c1.621,0,2.941-1.319,2.941-2.941S116.315,196.821,114.694,196.821z"/>
<path fill="#86C440" d="M99.506,208.863c-3.553,0-6.441-2.89-6.441-6.441s2.889-6.441,6.441-6.441s6.443,2.89,6.443,6.441
	S103.059,208.863,99.506,208.863z M99.506,199.48c-1.623,0-2.941,1.319-2.941,2.941s1.318,2.941,2.941,2.941
	s2.943-1.319,2.943-2.941S101.129,199.48,99.506,199.48z"/>
<path fill="#86C440" d="M109.118,198.566c-2.096-1.296-20.576-12.806-24.033-17.968c-4.946-7.379-4.946-10.976-4.946-34.376h2.999
	c0,23.115,0,26.085,4.439,32.706c2.621,3.914,17.576,13.66,23.119,17.085L109.118,198.566z"/>
<path fill="#86C440" d="M96.088,200.759c-0.408-0.461-10.045-11.342-13.77-16.102c-6.879-8.791-6.876-24.788-6.873-37.643v-0.792h3
	v0.793c-0.003,12.393-0.006,27.817,6.236,35.792c3.668,4.688,13.553,15.849,13.652,15.961L96.088,200.759z"/>
</svg>
